<svg width="20" height="20" viewBox="0 0 20 20" fill="none" xmlns="http://www.w3.org/2000/svg">
<g clip-path="url(#clip0)">
<path fill-rule="evenodd" clip-rule="evenodd" d="M10 1.25C7.67936 1.25 5.45376 2.17187 3.81282 3.81282C2.17187 5.45376 1.25 7.67935 1.25 10C1.25 12.3206 2.17187 14.5462 3.81282 16.1872C5.45376 17.8281 7.67935 18.75 10 18.75C12.3206 18.75 14.5462 17.8281 16.1872 16.1872C17.8281 14.5462 18.75 12.3206 18.75 10C18.75 7.67936 17.8281 5.45376 16.1872 3.81282C14.5462 2.17187 12.3206 1.25 10 1.25ZM10 0C7.34784 -2.3186e-07 4.8043 1.05357 2.92893 2.92893C1.05357 4.80429 2.3186e-07 7.34783 0 10C-2.3186e-07 12.6522 1.05357 15.1957 2.92893 17.0711C4.80429 18.9464 7.34783 20 10 20C12.6522 20 15.1957 18.9464 17.0711 17.0711C18.9464 15.1957 20 12.6522 20 10C20 7.34784 18.9464 4.8043 17.0711 2.92893C15.1957 1.05357 12.6522 2.3186e-07 10 0Z" fill="inherit"/>
<path fill-rule="evenodd" clip-rule="evenodd" d="M10.4423 5.80759C10.5005 5.86564 10.5467 5.93461 10.5782 6.01054C10.6097 6.08648 10.6259 6.16788 10.6259 6.25009C10.6259 6.33229 10.6097 6.4137 10.5782 6.48963C10.5467 6.56556 10.5005 6.63453 10.4423 6.69259L7.13353 10.0001L10.4423 13.3076C10.5004 13.3657 10.5465 13.4347 10.5779 13.5106C10.6094 13.5865 10.6256 13.6679 10.6256 13.7501C10.6256 13.8323 10.6094 13.9136 10.5779 13.9896C10.5465 14.0655 10.5004 14.1345 10.4423 14.1926C10.3842 14.2507 10.3152 14.2968 10.2393 14.3282C10.1633 14.3597 10.082 14.3759 9.99978 14.3759C9.9176 14.3759 9.83622 14.3597 9.7603 14.3282C9.68437 14.2968 9.61539 14.2507 9.55728 14.1926L5.80728 10.4426C5.74907 10.3845 5.70289 10.3156 5.67139 10.2396C5.63988 10.1637 5.62366 10.0823 5.62366 10.0001C5.62366 9.91788 5.63988 9.83648 5.67139 9.76054C5.70289 9.68461 5.74907 9.61564 5.80728 9.55759L9.55728 5.80759C9.61533 5.74938 9.6843 5.7032 9.76023 5.67169C9.83617 5.64019 9.91757 5.62397 9.99978 5.62397C10.082 5.62397 10.1634 5.64019 10.2393 5.6717C10.3152 5.7032 10.3842 5.74938 10.4423 5.80759Z" fill="inherit"/>
<path fill-rule="evenodd" clip-rule="evenodd" d="M14.375 10C14.375 10.1658 14.3092 10.3247 14.1919 10.4419C14.0747 10.5592 13.9158 10.625 13.75 10.625H7.5C7.33424 10.625 7.17527 10.5592 7.05806 10.4419C6.94085 10.3247 6.875 10.1658 6.875 10C6.875 9.83424 6.94085 9.67527 7.05806 9.55806C7.17527 9.44085 7.33424 9.375 7.5 9.375H13.75C13.9158 9.375 14.0747 9.44085 14.1919 9.55806C14.3092 9.67527 14.375 9.83424 14.375 10Z" fill="inherit"/>
</g>
<defs>
<clipPath id="clip0">
<rect width="20" height="20" fill="white" transform="translate(20 20) rotate(-180)"/>
</clipPath>
</defs>
</svg>
