<svg width="20" height="20" viewBox="0 0 20 20" fill="none" xmlns="http://www.w3.org/2000/svg">
<path fill-rule="evenodd" clip-rule="evenodd" d="M2.66871 2.23431C2.98113 1.9219 3.48767 1.9219 3.80009 2.23431L6.23288 4.66711C7.519 3.9667 8.96355 3.5981 10.4349 3.6C14.3766 3.60024 17.7103 6.19103 18.832 9.76015C18.8812 9.9166 18.8811 10.0844 18.8317 10.2408C18.3113 11.8896 17.3203 13.342 15.9907 14.4249L18.2001 16.6343C18.5125 16.9467 18.5125 17.4533 18.2001 17.7657C17.8877 18.0781 17.3811 18.0781 17.0687 17.7657L14.1983 14.8953C14.1981 14.895 14.1978 14.8948 14.1975 14.8945L11.5874 12.2844C11.58 12.2775 11.5727 12.2705 11.5655 12.2633L8.17112 8.86889C8.16393 8.8617 8.15691 8.85441 8.15005 8.84702L2.66871 3.36569C2.3563 3.05327 2.3563 2.54673 2.66871 2.23431ZM11.5655 12.2633C11.5654 12.2632 11.5657 12.2634 11.5655 12.2633ZM13.191 11.6253C13.4787 11.137 13.6342 10.5767 13.6342 10.0004C13.6342 9.15165 13.297 8.33767 12.6969 7.73751C12.0967 7.13736 11.2827 6.8002 10.434 6.8002C9.85766 6.8002 9.29736 6.95566 8.80914 7.24337L7.4241 5.85833C8.36393 5.4249 9.39038 5.19859 10.4333 5.2L10.4344 5.2C13.5683 5.2 16.2361 7.20253 17.2254 9.99956C16.7636 11.3017 15.9387 12.4416 14.8521 13.2863L13.191 11.6253ZM11.9798 10.414C12.0156 10.2803 12.0342 10.1413 12.0342 10.0004C12.0342 9.576 11.8656 9.16898 11.5655 8.86889C11.2654 8.56879 10.8584 8.4002 10.434 8.4002C10.2931 8.4002 10.1541 8.41878 10.0204 8.45458L11.9798 10.414ZM3.99553 6.77868C4.22624 6.76282 4.45253 6.84757 4.61606 7.01109L12.5001 14.8943C12.7098 15.104 12.7863 15.4125 12.6989 15.6958C12.6114 15.9792 12.3744 16.191 12.083 16.2461C11.5393 16.3489 10.9871 16.4004 10.4338 16.4C10.4336 16.4 10.434 16.4 10.4338 16.4C6.49219 16.3997 3.15847 13.809 2.0368 10.2399C1.98772 10.0837 1.98773 9.91623 2.03682 9.76008C2.33898 8.79894 2.80439 7.89701 3.41264 7.09383C3.55225 6.90947 3.76481 6.79455 3.99553 6.77868ZM4.17678 8.83448L10.1369 14.794C7.13236 14.6718 4.60096 12.7083 3.64327 10C3.78613 9.59594 3.96476 9.20591 4.17678 8.83448Z" fill="inherit"/>
</svg>
