<svg width="20" height="20" viewBox="0 0 20 20" fill="none" xmlns="http://www.w3.org/2000/svg">
<path d="M10 11.1111C10.8591 11.1111 11.5556 10.4147 11.5556 9.55555C11.5556 8.69645 10.8591 8 10 8C9.14089 8 8.44444 8.69645 8.44444 9.55555C8.44444 10.4147 9.14089 11.1111 10 11.1111Z" fill="inherit"/>
<path d="M15.4444 11.1111C16.3036 11.1111 17 10.4147 17 9.55555C17 8.69645 16.3036 8 15.4444 8C14.5853 8 13.8889 8.69645 13.8889 9.55555C13.8889 10.4147 14.5853 11.1111 15.4444 11.1111Z" fill="inherit"/>
<path d="M4.55556 11.1111C5.41466 11.1111 6.11111 10.4147 6.11111 9.55555C6.11111 8.69645 5.41466 8 4.55556 8C3.69645 8 3 8.69645 3 9.55555C3 10.4147 3.69645 11.1111 4.55556 11.1111Z" fill="inherit"/>
</svg>
