<svg width="20" height="20" viewBox="0 0 20 20" fill="none" xmlns="http://www.w3.org/2000/svg">
<path d="M10.1603 11.64C10.6695 11.64 11.1579 11.4377 11.518 11.0776C11.878 10.7176 12.0803 10.2292 12.0803 9.72C12.0803 9.21079 11.878 8.72243 11.518 8.36236C11.1579 8.00229 10.6695 7.8 10.1603 7.8C9.65111 7.8 9.16275 8.00229 8.80268 8.36236C8.44261 8.72243 8.24032 9.21079 8.24032 9.72C8.24032 10.2292 8.44261 10.7176 8.80268 11.0776C9.16275 11.4377 9.65111 11.64 10.1603 11.64Z" fill="inherit"/>
<path fill-rule="evenodd" clip-rule="evenodd" d="M1 9.72C2.22304 5.82528 5.86144 3 10.1603 3C14.4592 3 18.0976 5.82528 19.3206 9.72C18.0976 13.6147 14.4592 16.44 10.1603 16.44C5.86144 16.44 2.22304 13.6147 1 9.72ZM14.0003 9.72C14.0003 10.7384 13.5958 11.7152 12.8756 12.4353C12.1555 13.1554 11.1788 13.56 10.1603 13.56C9.14189 13.56 8.16517 13.1554 7.44503 12.4353C6.72489 11.7152 6.32032 10.7384 6.32032 9.72C6.32032 8.70157 6.72489 7.72485 7.44503 7.00471C8.16517 6.28457 9.14189 5.88 10.1603 5.88C11.1788 5.88 12.1555 6.28457 12.8756 7.00471C13.5958 7.72485 14.0003 8.70157 14.0003 9.72Z" fill="inherit"/>
</svg>
