<svg width="50" height="50" viewBox="0 0 50 50" fill="none" xmlns="http://www.w3.org/2000/svg">
<path d="M25.0013 4.16699C13.5138 4.16699 4.16797 13.5128 4.16797 25.0003C4.16797 36.4878 13.5138 45.8337 25.0013 45.8337C36.4888 45.8337 45.8346 36.4878 45.8346 25.0003C45.8346 13.5128 36.4888 4.16699 25.0013 4.16699ZM25.0013 41.667C15.8117 41.667 8.33464 34.1899 8.33464 25.0003C8.33464 15.8107 15.8117 8.33366 25.0013 8.33366C34.1909 8.33366 41.668 15.8107 41.668 25.0003C41.668 34.1899 34.1909 41.667 25.0013 41.667Z" fill="black"/>
<path fill-rule="evenodd" clip-rule="evenodd" d="M14.8359 15.2929C15.2264 14.9024 15.8596 14.9024 16.2501 15.2929L19.2911 18.3339C20.8988 17.4584 22.7044 16.9976 24.5437 17C29.4707 17.0003 33.6379 20.2388 35.04 24.7002C35.1015 24.8958 35.1013 25.1055 35.0396 25.301C34.3891 27.362 33.1504 29.1775 31.4883 30.5311L34.2501 33.2929C34.6406 33.6834 34.6406 34.3166 34.2501 34.7071C33.8596 35.0976 33.2264 35.0976 32.8359 34.7071L29.2479 31.1191C29.2476 31.1188 29.2472 31.1184 29.2469 31.1181L25.9842 27.8554C25.975 27.8469 25.9659 27.8381 25.9569 27.8291L21.7139 23.5861C21.7049 23.5771 21.6961 23.568 21.6876 23.5588L14.8359 16.7071C14.4454 16.3166 14.4454 15.6834 14.8359 15.2929ZM25.9569 27.8291C25.9567 27.8289 25.9571 27.8293 25.9569 27.8291ZM27.9888 27.0316C28.3484 26.4213 28.5428 25.7209 28.5428 25.0005C28.5428 23.9396 28.1213 22.9221 27.3711 22.1719C26.6209 21.4217 25.6034 21.0002 24.5425 21.0002C23.8221 21.0002 23.1217 21.1946 22.5114 21.5542L20.7801 19.8229C21.9549 19.2811 23.238 18.9982 24.5416 19L24.543 19C28.4604 19 31.7951 21.5032 33.0317 24.9994C32.4545 26.6271 31.4233 28.052 30.0651 29.1079L27.9888 27.0316ZM26.4748 25.5176C26.5195 25.3503 26.5428 25.1766 26.5428 25.0005C26.5428 24.47 26.332 23.9612 25.9569 23.5861C25.5818 23.211 25.073 23.0002 24.5425 23.0002C24.3664 23.0002 24.1927 23.0235 24.0254 23.0682L26.4748 25.5176ZM16.4944 20.9734C16.7828 20.9535 17.0657 21.0595 17.2701 21.2639L27.1251 31.1179C27.3872 31.38 27.4828 31.7656 27.3736 32.1198C27.2643 32.474 26.968 32.7387 26.6038 32.8076C25.9242 32.9361 25.2339 33.0005 24.5422 33C24.542 33 24.5425 33 24.5422 33C19.6152 32.9997 15.4481 29.7612 14.046 25.2998C13.9847 25.1046 13.9847 24.8953 14.046 24.7001C14.4237 23.4987 15.0055 22.3713 15.7658 21.3673C15.9403 21.1368 16.206 20.9932 16.4944 20.9734ZM16.721 23.5431L24.1711 30.9925C20.4155 30.8398 17.2512 28.3854 16.0541 25C16.2327 24.4949 16.4559 24.0074 16.721 23.5431Z" fill="black"/>
</svg>
