<svg width="80" height="80" viewBox="0 0 80 80" fill="none" xmlns="http://www.w3.org/2000/svg">
<path d="M70 55.0003C70 56.267 69.3 57.367 68.2334 57.9337L41.9 72.7337C41.3667 73.1337 40.7 73.3337 40 73.3337C39.3 73.3337 38.6334 73.1337 38.1 72.7337L11.7667 57.9337C11.2323 57.6528 10.7851 57.2309 10.4736 56.7138C10.1621 56.1966 9.99834 55.604 10 55.0003V25.0003C10 23.7337 10.7 22.6337 11.7667 22.067L38.1 7.26699C38.6334 6.86699 39.3 6.66699 40 6.66699C40.7 6.66699 41.3667 6.86699 41.9 7.26699L68.2334 22.067C69.3 22.6337 70 23.7337 70 25.0003V55.0003ZM40 13.8337L20.1333 25.0003L40 36.167L59.8667 25.0003L40 13.8337ZM16.6667 53.0337L36.6667 64.3003V41.9337L16.6667 30.7003V53.0337ZM63.3334 53.0337V30.7003L43.3334 41.9337V64.3003L63.3334 53.0337V53.0337Z" fill="url(#paint0_linear)"/>
<defs>
<linearGradient id="paint0_linear" x1="73.5" y1="21" x2="7.5" y2="58" gradientUnits="userSpaceOnUse">
<stop stop-color="#29C5FE"/>
<stop offset="1" stop-color="#FF21B2"/>
</linearGradient>
</defs>
</svg>
